<svg width="9397" height="2000" viewBox="0 0 9397 2000" fill="none" xmlns="http://www.w3.org/2000/svg">
<g id="hexa thing">
<path id="Mods Auth" d="M2943.51 1459L2942.23 865.08L2647.83 1356.6H2573.59L2279.19 872.76V1459H2120.47V563H2257.43L2613.27 1156.92L2962.71 563H3099.67L3100.95 1459H2943.51ZM3634.81 1467.96C3565.69 1467.96 3503.4 1453.03 3447.93 1423.16C3392.46 1393.29 3348.94 1351.91 3317.37 1299C3286.65 1245.24 3271.29 1184.65 3271.29 1117.24C3271.29 1049.83 3286.65 989.667 3317.37 936.76C3348.94 883.853 3392.46 842.467 3447.93 812.6C3503.4 782.733 3565.69 767.8 3634.81 767.8C3704.78 767.8 3767.5 782.733 3822.97 812.6C3878.44 842.467 3921.53 883.853 3952.25 936.76C3983.82 989.667 3999.61 1049.83 3999.61 1117.24C3999.61 1184.65 3983.82 1245.24 3952.25 1299C3921.53 1351.91 3878.44 1393.29 3822.97 1423.16C3767.5 1453.03 3704.78 1467.96 3634.81 1467.96ZM3634.81 1331C3693.69 1331 3742.33 1311.37 3780.73 1272.12C3819.13 1232.87 3838.33 1181.24 3838.33 1117.24C3838.33 1053.24 3819.13 1001.61 3780.73 962.36C3742.33 923.107 3693.69 903.48 3634.81 903.48C3575.93 903.48 3527.29 923.107 3488.89 962.36C3451.34 1001.61 3432.57 1053.24 3432.57 1117.24C3432.57 1181.24 3451.34 1232.87 3488.89 1272.12C3527.29 1311.37 3575.93 1331 3634.81 1331ZM4822.05 509.24V1459H4668.45V1370.68C4642 1403.11 4609.14 1427.43 4569.89 1443.64C4531.49 1459.85 4488.82 1467.96 4441.89 1467.96C4376.18 1467.96 4316.88 1453.45 4263.97 1424.44C4211.92 1395.43 4170.96 1354.47 4141.09 1301.56C4111.22 1247.8 4096.29 1186.36 4096.29 1117.24C4096.29 1048.12 4111.22 987.107 4141.09 934.2C4170.96 881.293 4211.92 840.333 4263.97 811.32C4316.88 782.307 4376.18 767.8 4441.89 767.8C4487.12 767.8 4528.5 775.48 4566.05 790.84C4603.6 806.2 4635.6 829.24 4662.05 859.96V509.24H4822.05ZM4461.09 1331C4499.49 1331 4534.05 1322.47 4564.77 1305.4C4595.49 1287.48 4619.81 1262.31 4637.73 1229.88C4655.65 1197.45 4664.61 1159.91 4664.61 1117.24C4664.61 1074.57 4655.65 1037.03 4637.73 1004.6C4619.81 972.173 4595.49 947.427 4564.77 930.36C4534.05 912.44 4499.49 903.48 4461.09 903.48C4422.69 903.48 4388.13 912.44 4357.41 930.36C4326.69 947.427 4302.37 972.173 4284.45 1004.6C4266.53 1037.03 4257.57 1074.57 4257.57 1117.24C4257.57 1159.91 4266.53 1197.45 4284.45 1229.88C4302.37 1262.31 4326.69 1287.48 4357.41 1305.4C4388.13 1322.47 4422.69 1331 4461.09 1331ZM5242.56 1467.96C5187.09 1467.96 5132.91 1460.71 5080 1446.2C5027.09 1431.69 4984.85 1413.35 4953.28 1391.16L5014.72 1269.56C5045.44 1290.04 5082.13 1306.68 5124.8 1319.48C5168.32 1331.43 5210.99 1337.4 5252.8 1337.4C5348.37 1337.4 5396.16 1312.23 5396.16 1261.88C5396.16 1237.99 5383.79 1221.35 5359.04 1211.96C5335.15 1202.57 5296.32 1193.61 5242.56 1185.08C5186.24 1176.55 5140.16 1166.73 5104.32 1155.64C5069.33 1144.55 5038.61 1125.35 5012.16 1098.04C4986.56 1069.88 4973.76 1031.05 4973.76 981.56C4973.76 916.707 5000.64 865.08 5054.4 826.68C5109.01 787.427 5182.4 767.8 5274.56 767.8C5321.49 767.8 5368.43 773.347 5415.36 784.44C5462.29 794.68 5500.69 808.76 5530.56 826.68L5469.12 948.28C5411.09 914.147 5345.81 897.08 5273.28 897.08C5226.35 897.08 5190.51 904.333 5165.76 918.84C5141.87 932.493 5129.92 950.84 5129.92 973.88C5129.92 999.48 5142.72 1017.83 5168.32 1028.92C5194.77 1039.16 5235.31 1048.97 5289.92 1058.36C5344.53 1066.89 5389.33 1076.71 5424.32 1087.8C5459.31 1098.89 5489.17 1117.67 5513.92 1144.12C5539.52 1170.57 5552.32 1208.12 5552.32 1256.76C5552.32 1320.76 5524.59 1371.96 5469.12 1410.36C5413.65 1448.76 5338.13 1467.96 5242.56 1467.96ZM6646.74 1219.64H6147.54L6040.02 1459H5941.46L6351.06 563H6444.5L6854.1 1459H6754.26L6646.74 1219.64ZM6612.18 1142.84L6397.14 661.56L6182.1 1142.84H6612.18ZM7577.34 785.72V1459H7490.3V1336.12C7466.41 1377.08 7433.55 1409.08 7391.74 1432.12C7349.93 1454.31 7302.14 1465.4 7248.38 1465.4C7160.49 1465.4 7090.94 1441.08 7039.74 1392.44C6989.39 1342.95 6964.22 1270.84 6964.22 1176.12V785.72H7055.1V1167.16C7055.1 1237.99 7072.59 1291.75 7107.58 1328.44C7142.57 1365.13 7192.49 1383.48 7257.34 1383.48C7328.17 1383.48 7384.06 1362.15 7425.02 1319.48C7465.98 1275.96 7486.46 1215.8 7486.46 1139V785.72H7577.34ZM8186.43 1418.04C8169.36 1433.4 8148.03 1445.35 8122.43 1453.88C8097.68 1461.56 8071.66 1465.4 8044.35 1465.4C7981.2 1465.4 7932.56 1448.33 7898.43 1414.2C7864.3 1380.07 7847.23 1331.85 7847.23 1269.56V862.52H7726.91V785.72H7847.23V638.52H7938.11V785.72H8142.91V862.52H7938.11V1264.44C7938.11 1304.55 7947.92 1335.27 7967.55 1356.6C7988.03 1377.08 8017.04 1387.32 8054.59 1387.32C8073.36 1387.32 8091.28 1384.33 8108.35 1378.36C8126.27 1372.39 8141.63 1363.85 8154.43 1352.76L8186.43 1418.04ZM8694.91 780.6C8779.39 780.6 8846.38 805.347 8895.87 854.84C8946.22 903.48 8971.39 974.733 8971.39 1068.6V1459H8880.51V1077.56C8880.51 1007.59 8863.02 954.253 8828.03 917.56C8793.04 880.867 8743.12 862.52 8678.27 862.52C8605.74 862.52 8548.14 884.28 8505.47 927.8C8463.66 970.467 8442.75 1029.77 8442.75 1105.72V1459H8351.87V509.24H8442.75V903.48C8467.5 864.227 8501.63 833.933 8545.15 812.6C8588.67 791.267 8638.59 780.6 8694.91 780.6Z" fill="white"/>
<g id="5">
<g id="auth">
<path id="Vector" d="M180.395 367.362C320.57 330.935 457.512 283.602 589.901 225.82C720.149 170.806 845.883 106.17 966.003 32.4785L973.62 27.894C989.81 18.1493 1010.11 18.3639 1026.09 28.4487L1033.43 33.0808C1153.55 106.772 1279.28 171.408 1409.53 226.422C1542.14 284.029 1679.29 331.161 1819.66 367.362L1828.03 369.427C1850.36 374.935 1866.05 394.97 1866.05 417.972V881.132C1866.05 1681.28 1042.21 1984.6 1021.4 1992.27C1021.24 1992.33 1021.12 1992.37 1021.06 1992.39L1014.18 1994.76C1005.01 1997.91 995.045 1997.91 985.873 1994.76V1994.76C981.318 1993.19 977.162 1992 972.616 1990.41C894.574 1963.1 134.001 1650.8 134.001 881.132V417.972C134.001 394.97 149.694 374.935 172.026 369.427L180.395 367.362Z" fill="url(#paint0_linear_2109_135)"/>
</g>
<g id="5_2" filter="url(#filter0_d_2109_135)">
<path d="M956.74 909.88C1083.03 909.88 1176.47 934.627 1237.06 984.12C1297.65 1032.76 1327.94 1099.32 1327.94 1183.8C1327.94 1237.56 1314.71 1286.2 1288.26 1329.72C1261.81 1373.24 1222.13 1407.8 1169.22 1433.4C1116.31 1459 1051.03 1471.8 973.38 1471.8C909.38 1471.8 847.513 1462.84 787.78 1444.92C728.046 1426.15 677.7 1400.55 636.74 1368.12L707.14 1238.84C740.42 1266.15 780.1 1287.91 826.18 1304.12C873.113 1319.48 921.326 1327.16 970.82 1327.16C1029.7 1327.16 1075.78 1315.21 1109.06 1291.32C1143.19 1266.57 1160.26 1232.87 1160.26 1190.2C1160.26 1144.12 1141.91 1109.56 1105.22 1086.52C1069.38 1062.63 1007.51 1050.68 919.62 1050.68H703.3L749.38 563H1275.46V702.52H890.18L870.98 909.88H956.74Z" fill="white"/>
</g>
</g>
</g>
<defs>
<filter id="filter0_d_2109_135" x="556.74" y="523" width="851.199" height="1068.8" filterUnits="userSpaceOnUse" color-interpolation-filters="sRGB">
<feFlood flood-opacity="0" result="BackgroundImageFix"/>
<feColorMatrix in="SourceAlpha" type="matrix" values="0 0 0 0 0 0 0 0 0 0 0 0 0 0 0 0 0 0 127 0" result="hardAlpha"/>
<feOffset dy="40"/>
<feGaussianBlur stdDeviation="40"/>
<feColorMatrix type="matrix" values="0 0 0 0 0 0 0 0 0 0 0 0 0 0 0 0 0 0 0.25 0"/>
<feBlend mode="normal" in2="BackgroundImageFix" result="effect1_dropShadow_2109_135"/>
<feBlend mode="normal" in="SourceGraphic" in2="effect1_dropShadow_2109_135" result="shape"/>
</filter>
<linearGradient id="paint0_linear_2109_135" x1="1000.03" y1="12" x2="1000.03" y2="1999.62" gradientUnits="userSpaceOnUse">
<stop stop-color="#E57C0B"/>
<stop offset="1" stop-color="#E94057"/>
</linearGradient>
</defs>
</svg>
