<svg xmlns="http://www.w3.org/2000/svg" width="211" height="127" viewBox="0 0 211 127" fill="none">
<path d="M105.12 39.72C105.12 41.2133 104.76 42.6133 104.04 43.92C103.347 45.2267 102.24 46.28 100.72 47.08C99.2267 47.88 97.3333 48.28 95.04 48.28H90.36V59H84.76V31.08H95.04C97.2 31.08 99.04 31.4533 100.56 32.2C102.08 32.9467 103.213 33.9733 103.96 35.28C104.733 36.5867 105.12 38.0667 105.12 39.72ZM94.8 43.76C96.3467 43.76 97.4933 43.4133 98.24 42.72C98.9867 42 99.36 41 99.36 39.72C99.36 37 97.84 35.64 94.8 35.64H90.36V43.76H94.8ZM118.936 59.36C116.803 59.36 114.883 58.8933 113.176 57.96C111.469 57 110.123 55.6533 109.136 53.92C108.176 52.1867 107.696 50.1867 107.696 47.92C107.696 45.6533 108.189 43.6533 109.176 41.92C110.189 40.1867 111.563 38.8533 113.296 37.92C115.029 36.96 116.963 36.48 119.096 36.48C121.229 36.48 123.163 36.96 124.896 37.92C126.629 38.8533 127.989 40.1867 128.976 41.92C129.989 43.6533 130.496 45.6533 130.496 47.92C130.496 50.1867 129.976 52.1867 128.936 53.92C127.923 55.6533 126.536 57 124.776 57.96C123.043 58.8933 121.096 59.36 118.936 59.36ZM118.936 54.48C119.949 54.48 120.896 54.24 121.776 53.76C122.683 53.2533 123.403 52.5067 123.936 51.52C124.469 50.5333 124.736 49.3333 124.736 47.92C124.736 45.8133 124.176 44.2 123.056 43.08C121.963 41.9333 120.616 41.36 119.016 41.36C117.416 41.36 116.069 41.9333 114.976 43.08C113.909 44.2 113.376 45.8133 113.376 47.92C113.376 50.0267 113.896 51.6533 114.936 52.8C116.003 53.92 117.336 54.48 118.936 54.48ZM140.204 29.4V59H134.604V29.4H140.204ZM144.297 47.84C144.297 45.6 144.737 43.6133 145.617 41.88C146.523 40.1467 147.737 38.8133 149.257 37.88C150.803 36.9467 152.523 36.48 154.417 36.48C156.07 36.48 157.51 36.8133 158.737 37.48C159.99 38.1467 160.99 38.9867 161.737 40V36.84H167.377V59H161.737V55.76C161.017 56.8 160.017 57.6667 158.737 58.36C157.483 59.0267 156.03 59.36 154.377 59.36C152.51 59.36 150.803 58.88 149.257 57.92C147.737 56.96 146.523 55.6133 145.617 53.88C144.737 52.12 144.297 50.1067 144.297 47.84ZM161.737 47.92C161.737 46.56 161.47 45.4 160.937 44.44C160.403 43.4533 159.683 42.7067 158.777 42.2C157.87 41.6667 156.897 41.4 155.857 41.4C154.817 41.4 153.857 41.6533 152.977 42.16C152.097 42.6667 151.377 43.4133 150.817 44.4C150.283 45.36 150.017 46.5067 150.017 47.84C150.017 49.1733 150.283 50.3467 150.817 51.36C151.377 52.3467 152.097 53.1067 152.977 53.64C153.883 54.1733 154.843 54.44 155.857 54.44C156.897 54.44 157.87 54.1867 158.777 53.68C159.683 53.1467 160.403 52.4 160.937 51.44C161.47 50.4533 161.737 49.28 161.737 47.92ZM178.446 40.28C179.166 39.1067 180.099 38.1867 181.246 37.52C182.419 36.8533 183.753 36.52 185.246 36.52V42.4H183.766C182.006 42.4 180.673 42.8133 179.766 43.64C178.886 44.4667 178.446 45.9067 178.446 47.96V59H172.846V36.84H178.446V40.28ZM210.218 36.84L196.498 69.48H190.538L195.338 58.44L186.458 36.84H192.738L198.458 52.32L204.258 36.84H210.218Z" fill="white"/>
<path d="M88 91.72H98.04V94H85.2V66.04H88V91.72ZM100.756 83.04C100.756 80.8 101.196 78.84 102.076 77.16C102.983 75.4533 104.223 74.1467 105.796 73.24C107.396 72.3067 109.196 71.84 111.196 71.84C113.276 71.84 115.063 72.32 116.556 73.28C118.076 74.24 119.169 75.4667 119.836 76.96V72.16H122.636V94H119.836V89.16C119.143 90.6533 118.036 91.8933 116.516 92.88C115.023 93.84 113.236 94.32 111.156 94.32C109.183 94.32 107.396 93.8533 105.796 92.92C104.223 91.9867 102.983 90.6667 102.076 88.96C101.196 87.2533 100.756 85.28 100.756 83.04ZM119.836 83.08C119.836 81.32 119.476 79.7733 118.756 78.44C118.036 77.1067 117.049 76.08 115.796 75.36C114.569 74.64 113.209 74.28 111.716 74.28C110.169 74.28 108.783 74.6267 107.556 75.32C106.329 76.0133 105.356 77.0267 104.636 78.36C103.943 79.6667 103.596 81.2267 103.596 83.04C103.596 84.8267 103.943 86.4 104.636 87.76C105.356 89.0933 106.329 90.12 107.556 90.84C108.783 91.5333 110.169 91.88 111.716 91.88C113.209 91.88 114.569 91.52 115.796 90.8C117.049 90.08 118.036 89.0533 118.756 87.72C119.476 86.3867 119.836 84.84 119.836 83.08ZM131.788 77C132.508 75.48 133.615 74.24 135.108 73.28C136.628 72.32 138.415 71.84 140.468 71.84C142.468 71.84 144.255 72.3067 145.828 73.24C147.401 74.1467 148.628 75.4533 149.508 77.16C150.415 78.84 150.868 80.8 150.868 83.04C150.868 85.28 150.415 87.2533 149.508 88.96C148.628 90.6667 147.388 91.9867 145.788 92.92C144.215 93.8533 142.441 94.32 140.468 94.32C138.388 94.32 136.588 93.8533 135.068 92.92C133.575 91.96 132.481 90.72 131.788 89.2V94H129.028V64.4H131.788V77ZM148.028 83.04C148.028 81.2267 147.668 79.6667 146.948 78.36C146.255 77.0267 145.295 76.0133 144.068 75.32C142.841 74.6267 141.455 74.28 139.908 74.28C138.415 74.28 137.041 74.64 135.788 75.36C134.561 76.08 133.588 77.1067 132.868 78.44C132.148 79.7733 131.788 81.32 131.788 83.08C131.788 84.84 132.148 86.3867 132.868 87.72C133.588 89.0533 134.561 90.08 135.788 90.8C137.041 91.52 138.415 91.88 139.908 91.88C141.455 91.88 142.841 91.5333 144.068 90.84C145.295 90.12 146.255 89.0933 146.948 87.76C147.668 86.4 148.028 84.8267 148.028 83.04ZM163.54 94.32C161.034 94.32 158.98 93.7467 157.38 92.6C155.807 91.4267 154.927 89.84 154.74 87.84H157.62C157.754 89.0667 158.327 90.0667 159.34 90.84C160.38 91.5867 161.767 91.96 163.5 91.96C165.02 91.96 166.207 91.6 167.06 90.88C167.94 90.16 168.38 89.2667 168.38 88.2C168.38 87.4533 168.14 86.84 167.66 86.36C167.18 85.88 166.567 85.5067 165.82 85.24C165.1 84.9467 164.114 84.64 162.86 84.32C161.234 83.8933 159.914 83.4667 158.9 83.04C157.887 82.6133 157.02 81.9867 156.3 81.16C155.607 80.3067 155.26 79.1733 155.26 77.76C155.26 76.6933 155.58 75.7067 156.22 74.8C156.86 73.8933 157.767 73.1733 158.94 72.64C160.114 72.1067 161.447 71.84 162.94 71.84C165.287 71.84 167.18 72.44 168.62 73.64C170.06 74.8133 170.834 76.44 170.94 78.52H168.14C168.06 77.24 167.554 76.2133 166.62 75.44C165.714 74.64 164.46 74.24 162.86 74.24C161.447 74.24 160.3 74.5733 159.42 75.24C158.54 75.9067 158.1 76.7333 158.1 77.72C158.1 78.5733 158.354 79.28 158.86 79.84C159.394 80.3733 160.047 80.8 160.82 81.12C161.594 81.4133 162.634 81.7467 163.94 82.12C165.514 82.5467 166.767 82.96 167.7 83.36C168.634 83.76 169.434 84.3467 170.1 85.12C170.767 85.8933 171.114 86.92 171.14 88.2C171.14 89.3733 170.82 90.4267 170.18 91.36C169.54 92.2667 168.647 92.9867 167.5 93.52C166.354 94.0533 165.034 94.32 163.54 94.32Z" fill="white"/>
<path d="M42.8795 4.00766C42.8795 0.13277 47.8379 -1.47833 50.1155 1.65653L70.2548 29.3758C70.6272 29.8884 70.8277 30.5056 70.8277 31.1392V48.5619C70.8277 50.2948 69.7119 51.8306 68.0638 52.3661L47.9868 58.8895C44.3015 60.087 44.3015 65.3006 47.9868 66.498L68.0638 73.0214C69.7119 73.5569 70.8277 75.0927 70.8277 76.8256V94.9132C70.8277 95.5467 70.6272 96.164 70.2548 96.6765L50.1155 124.396C47.8379 127.531 42.8795 125.92 42.8795 122.045V82.7709C42.8795 81.038 41.7636 79.5022 40.1155 78.9667L2.76393 66.8304C-0.921313 65.633 -0.921308 60.4194 2.76393 59.222L40.1155 47.0857C41.7636 46.5502 42.8795 45.0144 42.8795 43.2815V4.00766Z" fill="white"/>
</svg>
